<?xml version="1.0" encoding="UTF-8"?>
<svg id="Layer_1" xmlns="http://www.w3.org/2000/svg" version="1.1" viewBox="0 0 512 512">
  <!-- Generator: Adobe Illustrator 30.2.1, SVG Export Plug-In . SVG Version: 2.1.1 Build 1)  -->
  <defs>
    <style>
      .st0 {
        fill: #fff;
      }

      .st1 {
        fill: #2d74e0;
      }
    </style>
  </defs>
  <g id="iNCr5T">
    <g>
      <path class="st1" d="M407.55,503.48H102.67c-25.15-1.09-48.1-13.31-63.4-32.8-11.14-13.68-17.04-30.34-18.24-48.16V90.61c.91-19.44,8.28-37.26,21.09-51.74,15.26-17.03,37.08-28.59,60.5-28.6l307.76-.11c11.94.68,22.96,3.33,33.43,8.75,27.05,13.6,45.29,40.45,47.03,71.19v331.91c-1.15,21.33-9.85,41.13-24.84,56.13-15.33,15.58-36.09,24.84-58.46,25.34ZM386.38,156.04c.4,1.35,2.64,1.92,3.66,1.57,1.12-.38,1.95-1.55,2.29-2.86,1.96-7.55,4.13-14.75,7.57-21.64,2.08-4.16,4.96-7.24,8.9-9.59,6.6-3.93,13.45-6.75,20.78-9.2,1.4-.47,2.49-1.76,2.52-3.08.02-1.17-.99-2.42-2.23-2.86-7.04-2.46-13.66-5.1-20.04-8.74-4.53-2.58-7.67-5.98-9.94-10.65-3.44-7.08-5.61-14.47-7.56-22.21-.39-1.56-1.59-2.84-3.1-2.89-1.38-.05-2.72,1.22-3.13,2.73-2.33,8.57-6.24,23.3-12.8,29.24-3.82,3.46-8.5,5.89-13.28,7.66l-13.49,4.99c-1.14.42-2.08,2.16-1.9,3.29s1.37,2.16,2.69,2.55c8.26,2.42,21.33,7.12,27.15,13.25s9.34,19.77,11.93,28.45ZM449.36,168.78c0-7.54-6.11-13.65-13.65-13.65s-13.65,6.11-13.65,13.65,6.11,13.65,13.65,13.65,13.65-6.11,13.65-13.65ZM207.83,383.3c2.27,6.35,7.89,10.52,14.43,10.83,5.83.27,13.11-3.1,15.2-9.44l11.99-36.55,53.69-165.74c1.91-5.89,1.55-11.63-2.43-16.46-3.42-4.15-9.04-6.94-15.1-5.75-5.15,1.01-11.06,4.52-12.87,10.08l-35.49,109.62-28.69,90.05c-1.46,4.59-2.5,8.44-.73,13.37ZM162.42,364.98c6.72,6.69,17.69,4.67,23.34-1.26,5.56-5.84,7.53-16.34,1.03-22.93l-62.02-62.75,63.35-63.41c5.35-7.82,5.09-17.14-1.48-23.63-5.87-5.79-16.63-7.09-23.19-.59l-73.78,73.09c-8.14,8.06-9.04,20.04-.67,28.38l73.42,73.1ZM352.01,364.56l71.6-71.25c6.96-6.93,10.45-19.23,2.87-27.12l-70.97-73.8c-6.8-7.07-16.95-8.61-24.59-2.31-6.6,5.44-9.35,17.15-2.53,24.23l61.34,63.59-62.73,63.1c-6.54,6.58-4.04,17.85,1.7,23.24,6.4,6.01,16.82,6.78,23.32.31Z"/>
      <path class="st0" d="M162.42,364.98l-73.42-73.1c-8.37-8.33-7.47-20.31.67-28.38l73.78-73.09c6.56-6.5,17.33-5.2,23.19.59,6.57,6.49,6.84,15.81,1.48,23.63l-63.35,63.41,62.02,62.75c6.51,6.58,4.53,17.09-1.03,22.93-5.65,5.93-16.63,7.95-23.34,1.26Z"/>
      <path class="st0" d="M352.01,364.56c-6.5,6.47-16.92,5.7-23.32-.31-5.74-5.39-8.24-16.66-1.7-23.24l62.73-63.1-61.34-63.59c-6.82-7.07-4.07-18.79,2.53-24.23,7.64-6.3,17.79-4.76,24.59,2.31l70.97,73.8c7.59,7.89,4.09,20.2-2.87,27.12l-71.6,71.25Z"/>
      <path class="st0" d="M207.83,383.3c-1.76-4.93-.73-8.78.73-13.37l28.69-90.05,35.49-109.62c1.8-5.57,7.72-9.07,12.87-10.08,6.06-1.19,11.68,1.6,15.1,5.75,3.98,4.83,4.34,10.58,2.43,16.46l-53.69,165.74-11.99,36.55c-2.08,6.35-9.37,9.72-15.2,9.44-6.54-.31-12.16-4.48-14.43-10.83Z"/>
      <path class="st0" d="M386.38,156.04c-2.59-8.68-6.17-22.37-11.93-28.45s-18.89-10.83-27.15-13.25c-1.31-.38-2.51-1.41-2.69-2.55s.76-2.86,1.9-3.29l13.49-4.99c4.79-1.77,9.46-4.2,13.28-7.66,6.56-5.94,10.47-20.67,12.8-29.24.41-1.51,1.75-2.77,3.13-2.73,1.51.05,2.71,1.34,3.1,2.89,1.94,7.74,4.12,15.13,7.56,22.21,2.27,4.67,5.41,8.07,9.94,10.65,6.39,3.64,13.01,6.28,20.04,8.74,1.24.43,2.26,1.68,2.23,2.86-.03,1.33-1.12,2.61-2.52,3.08-7.34,2.45-14.19,5.27-20.78,9.2-3.93,2.35-6.82,5.43-8.9,9.59-3.44,6.89-5.61,14.09-7.57,21.64-.34,1.31-1.17,2.48-2.29,2.86-1.03.34-3.26-.23-3.66-1.57Z"/>
      <circle class="st0" cx="435.71" cy="168.78" r="13.65"/>
    </g>
  </g>
</svg>